<svg xmlns="http://www.w3.org/2000/svg" width="123.371" height="53.019" viewBox="0 0 123.371 53.019"><defs><style>.a{fill:#fff;stroke:rgba(0,0,0,0);stroke-miterlimit:10;}</style></defs><path class="a" d="M55.187,14705.151a6.4,6.4,0,0,1,1.129-11.771,13.946,13.946,0,0,0,0-26.767,6.4,6.4,0,0,1-1.141-11.76q.133-.078.277-.144a7.112,7.112,0,0,1,9.5,3.3,5.871,5.871,0,0,0,4.485,3.267,7.1,7.1,0,0,1,4.787,2.861,6.746,6.746,0,0,1,1.192,2.661,7.465,7.465,0,0,1,.055,2.775,5.864,5.864,0,0,0,1.709,5.285,7.12,7.12,0,0,1,.015,10.265,5.883,5.883,0,0,0-1.724,5.282q.028.138.044.287a7.111,7.111,0,0,1-6.068,8.021,5.863,5.863,0,0,0-4.5,3.264c-.044.088-.089.177-.133.262a7.1,7.1,0,0,1-9.626,2.908Zm-28.771-1.927v-3.041h1.521a2.143,2.143,0,0,0,1.927-1.211l.627-1.4-4.58-10.32H29.24l2.9,6.463,2.8-6.463H38.3l-.62,1.429-.048.177-5.027,11.457a4.9,4.9,0,0,1-4.665,2.908Zm-8.445-3.684v-7.363a4.609,4.609,0,0,1,4.606-4.6h1.816v3.1H22.578a1.506,1.506,0,0,0-1.506,1.5v7.363Zm-12.586-1.849a6.371,6.371,0,0,1,.011-8.852,5.936,5.936,0,0,1,4.4-1.856,5.9,5.9,0,0,1,4.377,1.86,6.375,6.375,0,0,1,.018,8.848,5.879,5.879,0,0,1-4.4,1.849A5.918,5.918,0,0,1,5.385,14697.692Zm2.285-6.662a3.2,3.2,0,0,0-.915,2.3,3.11,3.11,0,0,0,.875,2.252,2.831,2.831,0,0,0,2.167.9,2.841,2.841,0,0,0,2.141-.919,3.094,3.094,0,0,0,.9-2.248,3.2,3.2,0,0,0-.919-2.288,2.833,2.833,0,0,0-2.13-.949A2.791,2.791,0,0,0,7.67,14691.03Zm-6.005,8.511a4.609,4.609,0,0,1-4.6-4.606v-1.609h-.018v-3.145H-4.75v-2.923h1.794v-3.791H.177v3.791h2.06v2.923H.177v2.731l-.015,0v2.019a1.5,1.5,0,0,0,1.5,1.506h1.1v3.1Zm-18.259-1.8a6.084,6.084,0,0,1-1.783-4.426,6.227,6.227,0,0,1,1.786-4.466,6.111,6.111,0,0,1,4.588-1.86,6.416,6.416,0,0,1,3.064.757A5.659,5.659,0,0,1-6.7,14689.9l.38.649-2.4,1.569-.417-.562a3.446,3.446,0,0,0-2.927-1.51,3.23,3.23,0,0,0-2.366.923,3,3,0,0,0-.923,2.248,3.235,3.235,0,0,0,.926,2.337,3.085,3.085,0,0,0,2.362.971,3.621,3.621,0,0,0,2.96-1.547l.436-.554,2.362,1.683-.421.639a5.912,5.912,0,0,1-2.373,2.093,6.921,6.921,0,0,1-3.1.705A5.961,5.961,0,0,1-16.595,14697.736Zm-14.31-.062a6.187,6.187,0,0,1-1.794-4.43,6.1,6.1,0,0,1,1.809-4.414,5.975,5.975,0,0,1,4.414-1.846,5.464,5.464,0,0,1,3.049.894v-.624h3.093v11.944h-3.093v-.661a5.636,5.636,0,0,1-3.134,1A5.834,5.834,0,0,1-30.9,14697.674Zm2.255-6.662a3.186,3.186,0,0,0-.915,2.28,3.146,3.146,0,0,0,.93,2.277,2.908,2.908,0,0,0,2.185.953,2.941,2.941,0,0,0,2.181-.92,3.08,3.08,0,0,0,.915-2.3,3.159,3.159,0,0,0-.9-2.322,2.918,2.918,0,0,0-2.2-.919A2.875,2.875,0,0,0-28.649,14691.012ZM-43,14699.541v-15.856h8.681v3.175h-5.492v2.45h5.492v3.171h-5.492v7.061ZM45.986,14680a7.59,7.59,0,1,1,7.589,7.593A7.586,7.586,0,0,1,45.986,14680Zm-8.785-3.352a4.609,4.609,0,0,1-4.606-4.6v-1.613l-.011,0v-3.148h-1.8v-2.919h1.8v-3.913h3.13v3.913h2.06v2.919h-2.06v2.735l-.015,0v2.019a1.5,1.5,0,0,0,1.5,1.5h1.1v3.1Zm-17.946-1.8a6.107,6.107,0,0,1-1.783-4.43,6.233,6.233,0,0,1,1.786-4.462,6.1,6.1,0,0,1,4.588-1.86,6.431,6.431,0,0,1,3.067.757,5.6,5.6,0,0,1,2.24,2.155l.38.646-2.4,1.569-.413-.562a3.462,3.462,0,0,0-2.931-1.51,3.222,3.222,0,0,0-2.362.923,3,3,0,0,0-.926,2.252,3.244,3.244,0,0,0,.926,2.336,3.1,3.1,0,0,0,2.362.968,3.607,3.607,0,0,0,2.96-1.543l.436-.554,2.366,1.679-.421.639a5.951,5.951,0,0,1-2.373,2.1,6.971,6.971,0,0,1-3.1.7A5.964,5.964,0,0,1,19.256,14674.853Zm-12.428,1.1a4.26,4.26,0,0,1-1.657-1.941,8.546,8.546,0,0,1-.535-3.447v-6.112H7.829v6.747a2.128,2.128,0,0,0,4.256,0v-6.747H15.3v11.944H12.169v-.728a4.59,4.59,0,0,1-2.886.989A4.524,4.524,0,0,1,6.828,14675.948Zm-15.111-1.151a6.184,6.184,0,0,1-1.779-4.429,6.083,6.083,0,0,1,1.8-4.422,5.969,5.969,0,0,1,4.414-1.846,5.443,5.443,0,0,1,3.049.89v-4.532H2.3v15.853H-.794v-.724a5.371,5.371,0,0,1-3.145,1.066A5.835,5.835,0,0,1-8.283,14674.8Zm2.259-6.673a3.186,3.186,0,0,0-.9,2.27,3.168,3.168,0,0,0,.93,2.281,2.89,2.89,0,0,0,2.185.96,3.014,3.014,0,0,0,2.152-.908,3,3,0,0,0,.945-2.292,3.265,3.265,0,0,0-.882-2.348,2.9,2.9,0,0,0-2.207-.912A2.885,2.885,0,0,0-6.024,14668.124Zm-16.141,6.684a6.148,6.148,0,0,1-1.783-4.421,6.161,6.161,0,0,1,1.794-4.43,5.913,5.913,0,0,1,4.4-1.856,5.9,5.9,0,0,1,4.381,1.856,6.161,6.161,0,0,1,1.794,4.43,6.16,6.16,0,0,1-1.775,4.418,5.882,5.882,0,0,1-4.4,1.849A5.924,5.924,0,0,1-22.164,14674.808Zm2.281-6.665a3.207,3.207,0,0,0-.912,2.3,3.116,3.116,0,0,0,.871,2.252,2.842,2.842,0,0,0,2.167.9,2.849,2.849,0,0,0,2.144-.919,3.092,3.092,0,0,0,.9-2.244,3.18,3.18,0,0,0-.923-2.289,2.818,2.818,0,0,0-2.126-.952A2.8,2.8,0,0,0-19.883,14668.143Zm-11.324,8.511v-7.359a4.612,4.612,0,0,1,4.606-4.606h1.816v3.1H-26.6a1.507,1.507,0,0,0-1.506,1.506v7.359Zm-11.774-.025v-16.02h5.791a4.542,4.542,0,0,1,4.555,4.54,4.526,4.526,0,0,1-1.336,3.208,4.525,4.525,0,0,1-3.219,1.336h-2.646v6.936Zm3.145-9.988h2.576a1.466,1.466,0,0,0,1.465-1.465,1.477,1.477,0,0,0-1.465-1.48h-2.576Z" transform="translate(43.5 -14653.479)"/></svg>